<svg width="16" height="16" viewBox="0 0 16 16" fill="none" xmlns="http://www.w3.org/2000/svg">
<rect width="16" height="16" rx="1" fill="#161618"/>
<circle cx="1.25" cy="1.25" r="0.5" fill="#525053"/>
<circle cx="4.25" cy="1.25" r="0.5" fill="#525053"/>
<circle cx="5.75" cy="1.25" r="0.5" fill="#525053"/>
<circle cx="7.25" cy="1.25" r="0.5" fill="#525053"/>
<circle cx="8.75" cy="1.25" r="0.5" fill="#525053"/>
<circle cx="10.25" cy="1.25" r="0.5" fill="#525053"/>
<circle cx="11.75" cy="1.25" r="0.5" fill="#525053"/>
<circle cx="13.25" cy="1.25" r="0.5" fill="#525053"/>
<circle cx="14.75" cy="1.25" r="0.5" fill="#525053"/>
<circle cx="2.75" cy="1.25" r="0.5" fill="#525053"/>
<circle cx="1.25" cy="2.75" r="0.5" fill="#525053"/>
<circle cx="4.25" cy="2.75" r="0.5" fill="#525053"/>
<circle cx="5.75" cy="2.75" r="0.5" fill="#525053"/>
<circle cx="7.25" cy="2.75" r="0.5" fill="#525053"/>
<circle cx="8.75" cy="2.75" r="0.5" fill="#525053"/>
<circle cx="10.25" cy="2.75" r="0.5" fill="#525053"/>
<circle cx="11.75" cy="2.75" r="0.5" fill="#525053"/>
<circle cx="13.25" cy="2.75" r="0.5" fill="#525053"/>
<circle cx="14.75" cy="2.75" r="0.5" fill="#525053"/>
<circle cx="2.75" cy="2.75" r="0.5" fill="#525053"/>
<circle cx="1.25" cy="4.25" r="0.5" fill="#525053"/>
<circle cx="4.25" cy="4.25" r="0.5" fill="#525053"/>
<circle cx="5.75" cy="4.25" r="0.5" fill="#525053"/>
<circle cx="7.25" cy="4.25" r="0.5" fill="#525053"/>
<circle cx="8.75" cy="4.25" r="0.5" fill="#525053"/>
<circle cx="10.25" cy="4.25" r="0.5" fill="#525053"/>
<circle cx="11.75" cy="4.25" r="0.5" fill="#525053"/>
<circle cx="13.25" cy="4.25" r="0.5" fill="#525053"/>
<circle cx="14.75" cy="4.25" r="0.5" fill="#525053"/>
<circle cx="2.75" cy="4.25" r="0.5" fill="#525053"/>
<circle cx="1.25" cy="5.75" r="0.5" fill="#525053"/>
<circle cx="4.25" cy="5.75" r="0.5" fill="#525053"/>
<circle cx="5.75" cy="5.75" r="0.5" fill="#525053"/>
<circle cx="7.25" cy="5.75" r="0.5" fill="#525053"/>
<circle cx="8.75" cy="5.75" r="0.5" fill="#525053"/>
<circle cx="10.25" cy="5.75" r="0.5" fill="#525053"/>
<circle cx="11.75" cy="5.75" r="0.5" fill="#525053"/>
<circle cx="13.25" cy="5.75" r="0.5" fill="#525053"/>
<circle cx="14.75" cy="5.75" r="0.5" fill="#525053"/>
<circle cx="2.75" cy="5.75" r="0.5" fill="#525053"/>
<circle cx="1.25" cy="7.25" r="0.5" fill="#525053"/>
<circle cx="4.25" cy="7.25" r="0.5" fill="#525053"/>
<circle cx="5.75" cy="7.25" r="0.5" fill="#525053"/>
<circle cx="7.25" cy="7.25" r="0.5" fill="#525053"/>
<circle cx="8.75" cy="7.25" r="0.5" fill="#525053"/>
<circle cx="10.25" cy="7.25" r="0.5" fill="#525053"/>
<circle cx="11.75" cy="7.25" r="0.5" fill="#525053"/>
<circle cx="13.25" cy="7.25" r="0.5" fill="#525053"/>
<circle cx="14.75" cy="7.25" r="0.5" fill="#525053"/>
<circle cx="2.75" cy="7.25" r="0.5" fill="#525053"/>
<circle cx="1.25" cy="8.75" r="0.5" fill="#525053"/>
<circle cx="4.25" cy="8.75" r="0.5" fill="#525053"/>
<circle cx="5.75" cy="8.75" r="0.5" fill="#525053"/>
<circle cx="7.25" cy="8.75" r="0.5" fill="#525053"/>
<circle cx="8.75" cy="8.75" r="0.5" fill="#525053"/>
<circle cx="10.25" cy="8.75" r="0.5" fill="#525053"/>
<circle cx="11.75" cy="8.75" r="0.5" fill="#525053"/>
<circle cx="13.25" cy="8.75" r="0.5" fill="#525053"/>
<circle cx="14.75" cy="8.75" r="0.5" fill="#525053"/>
<circle cx="2.75" cy="8.75" r="0.5" fill="#525053"/>
<circle cx="1.25" cy="10.25" r="0.5" fill="#525053"/>
<circle cx="4.25" cy="10.25" r="0.5" fill="#525053"/>
<circle cx="5.75" cy="10.25" r="0.5" fill="#525053"/>
<circle cx="7.25" cy="10.25" r="0.5" fill="#525053"/>
<circle cx="8.75" cy="10.25" r="0.5" fill="#525053"/>
<circle cx="10.25" cy="10.25" r="0.5" fill="#525053"/>
<circle cx="11.75" cy="10.25" r="0.5" fill="#525053"/>
<circle cx="13.25" cy="10.25" r="0.5" fill="#525053"/>
<circle cx="14.75" cy="10.25" r="0.5" fill="#525053"/>
<circle cx="2.75" cy="10.25" r="0.5" fill="#525053"/>
<circle cx="1.25" cy="11.75" r="0.5" fill="#525053"/>
<circle cx="4.25" cy="11.75" r="0.5" fill="#525053"/>
<circle cx="5.75" cy="11.75" r="0.5" fill="#525053"/>
<circle cx="7.25" cy="11.75" r="0.5" fill="#525053"/>
<circle cx="8.75" cy="11.75" r="0.5" fill="#525053"/>
<circle cx="10.25" cy="11.75" r="0.5" fill="#525053"/>
<circle cx="11.75" cy="11.75" r="0.5" fill="#525053"/>
<circle cx="13.25" cy="11.75" r="0.5" fill="#525053"/>
<circle cx="14.75" cy="11.75" r="0.5" fill="#525053"/>
<circle cx="2.75" cy="11.75" r="0.5" fill="#525053"/>
<circle cx="1.25" cy="13.25" r="0.5" fill="#525053"/>
<circle cx="4.25" cy="13.25" r="0.5" fill="#525053"/>
<circle cx="5.75" cy="13.25" r="0.5" fill="#525053"/>
<circle cx="7.25" cy="13.25" r="0.5" fill="#525053"/>
<circle cx="8.75" cy="13.25" r="0.5" fill="#525053"/>
<circle cx="10.25" cy="13.25" r="0.5" fill="#525053"/>
<circle cx="11.75" cy="13.25" r="0.5" fill="#525053"/>
<circle cx="13.25" cy="13.25" r="0.5" fill="#525053"/>
<circle cx="14.75" cy="13.25" r="0.5" fill="#525053"/>
<circle cx="2.75" cy="13.25" r="0.5" fill="#525053"/>
<circle cx="1.25" cy="14.75" r="0.5" fill="#525053"/>
<circle cx="4.25" cy="14.75" r="0.5" fill="#525053"/>
<circle cx="5.75" cy="14.75" r="0.5" fill="#525053"/>
<circle cx="7.25" cy="14.75" r="0.5" fill="#525053"/>
<circle cx="8.75" cy="14.75" r="0.5" fill="#525053"/>
<circle cx="10.25" cy="14.75" r="0.5" fill="#525053"/>
<circle cx="11.75" cy="14.75" r="0.5" fill="#525053"/>
<circle cx="13.25" cy="14.75" r="0.5" fill="#525053"/>
<circle cx="14.75" cy="14.75" r="0.5" fill="#525053"/>
<circle cx="2.75" cy="14.75" r="0.5" fill="#525053"/>
<rect x="3.75" y="5.25" width="1" height="1" rx="0.5" fill="#A00034"/>
<rect x="8" y="5" width="1.5" height="1.5" rx="0.75" fill="#A00034"/>
<rect x="9.5" y="5" width="1.5" height="1.5" rx="0.75" fill="#A00034"/>
<rect x="6.5" y="5" width="1.5" height="1.5" rx="0.75" fill="#FA0556"/>
<rect x="11" y="5" width="1.5" height="1.5" rx="0.75" fill="#A00034"/>
<rect x="11" y="6.5" width="1.5" height="1.5" rx="0.75" fill="#A00034"/>
<rect x="11" y="8" width="1.5" height="1.5" rx="0.75" fill="#A00034"/>
<rect x="11" y="9.5" width="1.5" height="1.5" rx="0.75" fill="#A00034"/>
</svg>
