<svg width="42" height="42" viewBox="0 0 42 42" fill="none" xmlns="http://www.w3.org/2000/svg">
<rect x="2" y="2" width="38" height="38" rx="19" stroke="black" stroke-width="4"/>
<path fill-rule="evenodd" clip-rule="evenodd" d="M28.9151 23.4255C28.6038 27.2023 25.4476 30.109 21.658 30.109L21.2837 30.109C17.494 30.109 14.3379 27.2023 14.0266 23.4255C13.8595 21.3986 14.4856 19.3861 15.7729 17.8117L19.9264 12.7322C20.7246 11.7559 22.2171 11.7559 23.0153 12.7322L27.1688 17.8117C28.4561 19.3861 29.0822 21.3987 28.9151 23.4255ZM21.658 29.909C25.3436 29.909 28.413 27.0822 28.7158 23.409C28.8786 21.4339 28.2685 19.4726 27.0139 17.9383L22.8605 12.8588C22.1423 11.9804 20.7994 11.9804 20.0812 12.8588L15.9277 17.9383C14.6732 19.4726 14.0631 21.4339 14.2259 23.409C14.5287 27.0822 17.5981 29.909 21.2837 29.909L21.658 29.909ZM21.658 28.6092C24.6671 28.6092 27.1731 26.3012 27.4203 23.3023C27.5555 21.6627 27.049 20.0347 26.0077 18.7611L21.8542 13.6816C21.6561 13.4392 21.2856 13.4392 21.0875 13.6816L16.934 18.7611C15.8926 20.0347 15.3862 21.6627 15.5213 23.3023C15.7685 26.3012 18.2746 28.6092 21.2837 28.6092L21.658 28.6092ZM27.6197 23.3187C27.3639 26.4214 24.7712 28.8092 21.658 28.8092L21.2837 28.8092C18.1705 28.8092 15.5778 26.4213 15.322 23.3187C15.1826 21.6275 15.705 19.9482 16.7792 18.6345L20.9326 13.555C21.2108 13.2148 21.7309 13.2148 22.009 13.555L26.1625 18.6345C27.2367 19.9482 27.7591 21.6275 27.6197 23.3187ZM21.5708 25.8929C21.5708 26.3019 21.2338 26.6582 20.8078 26.5909C19.0102 26.3069 17.5906 24.8873 17.3066 23.0897C17.2393 22.6637 17.5956 22.3267 18.0046 22.3267C18.4229 22.3267 18.7368 22.6675 18.826 23.0483C19.0603 24.0492 19.8483 24.8372 20.8492 25.0715C21.23 25.1607 21.5708 25.4746 21.5708 25.8929ZM20.839 26.3934C21.1222 26.4381 21.3708 26.2017 21.3708 25.8929C21.3708 25.5933 21.1218 25.3407 20.8036 25.2663C19.7287 25.0146 18.8829 24.1688 18.6312 23.0939C18.5568 22.7757 18.3042 22.5267 18.0046 22.5267C17.6958 22.5267 17.4594 22.7753 17.5041 23.0585C17.7746 24.7704 19.1271 26.1229 20.839 26.3934Z" fill="black"/>
<path fill-rule="evenodd" clip-rule="evenodd" d="M28.8155 23.4172C28.5084 27.1422 25.3956 30.009 21.658 30.009L21.2837 30.009C17.5461 30.009 14.4333 27.1422 14.1263 23.4172C13.9613 21.4162 14.5794 19.4293 15.8504 17.875L20.0038 12.7954C20.762 11.8681 22.1797 11.8681 22.9379 12.7954L27.0914 17.875C28.3623 19.4293 28.9804 21.4162 28.8155 23.4172ZM21.658 28.7091C24.7191 28.7091 27.2686 26.3612 27.52 23.3104C27.6573 21.6451 27.1429 19.9914 26.0851 18.6978L21.9317 13.6182C21.6935 13.327 21.2482 13.327 21.0101 13.6182L16.8566 18.6978C15.7989 19.9914 15.2844 21.6451 15.4217 23.3104C15.6732 26.3612 18.2226 28.7091 21.2837 28.7091L21.658 28.7091Z" fill="black"/>
<path d="M18.0046 22.4266C17.6457 22.4266 17.3493 22.7195 17.4054 23.074C17.6826 24.8288 19.0687 26.2149 20.8234 26.4921C21.178 26.5481 21.4709 26.2518 21.4709 25.8928V25.8928C21.4709 25.5339 21.1759 25.2507 20.8264 25.1689C19.7886 24.9259 18.9716 24.1089 18.7286 23.071C18.6468 22.7216 18.3636 22.4266 18.0046 22.4266V22.4266Z" fill="black"/>
</svg>
