<svg width="42" height="42" viewBox="0 0 42 42" fill="none" xmlns="http://www.w3.org/2000/svg">
<rect x="2" y="2" width="38" height="38" rx="19" stroke="black" stroke-width="4"/>
<path d="M10.9324 26V17.2727H16.7108V18.794H12.7775V20.8736H16.3272V22.3949H12.7775V26H10.9324ZM17.9519 26V17.2727H21.3951C22.057 17.2727 22.6209 17.3991 23.0868 17.652C23.5527 17.902 23.9078 18.25 24.1522 18.696C24.3993 19.1392 24.5229 19.6506 24.5229 20.2301C24.5229 20.8097 24.3979 21.321 24.1479 21.7642C23.8979 22.2074 23.5357 22.5526 23.0613 22.7997C22.5897 23.0469 22.0186 23.1705 21.3482 23.1705H19.1536V21.6918H21.0499C21.405 21.6918 21.6976 21.6307 21.9277 21.5085C22.1607 21.3835 22.334 21.2116 22.4476 20.9929C22.5641 20.7713 22.6223 20.517 22.6223 20.2301C22.6223 19.9403 22.5641 19.6875 22.4476 19.4716C22.334 19.2528 22.1607 19.0838 21.9277 18.9645C21.6948 18.8423 21.3993 18.7812 21.0414 18.7812H19.7971V26H17.9519ZM30.4558 19.7827C30.4217 19.4389 30.2754 19.1719 30.0169 18.9815C29.7583 18.7912 29.4075 18.696 28.9643 18.696C28.6632 18.696 28.4089 18.7386 28.2015 18.8239C27.9941 18.9062 27.835 19.0213 27.7243 19.169C27.6163 19.3168 27.5623 19.4844 27.5623 19.6719C27.5566 19.8281 27.5893 19.9645 27.6603 20.081C27.7342 20.1974 27.835 20.2983 27.9629 20.3835C28.0907 20.4659 28.2385 20.5384 28.4061 20.6009C28.5737 20.6605 28.7527 20.7116 28.943 20.7543L29.7271 20.9418C30.1078 21.027 30.4572 21.1406 30.7754 21.2827C31.0936 21.4247 31.3691 21.5994 31.6021 21.8068C31.835 22.0142 32.0154 22.2585 32.1433 22.5398C32.274 22.821 32.3407 23.1435 32.3436 23.5071C32.3407 24.0412 32.2044 24.5043 31.9345 24.8963C31.6674 25.2855 31.2811 25.5881 30.7754 25.804C30.2725 26.017 29.666 26.1236 28.9558 26.1236C28.2512 26.1236 27.6376 26.0156 27.1149 25.7997C26.595 25.5838 26.1887 25.2642 25.8961 24.8409C25.6064 24.4148 25.4544 23.8878 25.4402 23.2599H27.2257C27.2456 23.5526 27.3294 23.7969 27.4771 23.9929C27.6277 24.1861 27.8279 24.3324 28.0779 24.4318C28.3308 24.5284 28.6163 24.5767 28.9345 24.5767C29.247 24.5767 29.5183 24.5312 29.7484 24.4403C29.9814 24.3494 30.1618 24.223 30.2896 24.0611C30.4174 23.8991 30.4814 23.7131 30.4814 23.5028C30.4814 23.3068 30.4231 23.142 30.3066 23.0085C30.193 22.875 30.0254 22.7614 29.8038 22.6676C29.585 22.5739 29.3166 22.4886 28.9984 22.4119L28.0481 22.1733C27.3123 21.9943 26.7314 21.7145 26.3052 21.3338C25.8791 20.9531 25.6674 20.4403 25.6703 19.7955C25.6674 19.267 25.8081 18.8054 26.0922 18.4105C26.3791 18.0156 26.7725 17.7074 27.2725 17.4858C27.7725 17.2642 28.3407 17.1534 28.9771 17.1534C29.6248 17.1534 30.1902 17.2642 30.6731 17.4858C31.1589 17.7074 31.5368 18.0156 31.8066 18.4105C32.0765 18.8054 32.2157 19.2628 32.2243 19.7827H30.4558Z" fill="black"/>
</svg>
