<svg width="16" height="16" viewBox="0 0 16 16" fill="none" xmlns="http://www.w3.org/2000/svg">
<path d="M9.66992 11.0801C9.66992 10.8783 9.61133 10.696 9.49414 10.5332C9.37695 10.3704 9.15885 10.2207 8.83984 10.084C8.52734 9.94076 8.07487 9.81055 7.48242 9.69336C6.94857 9.57617 6.45052 9.42969 5.98828 9.25391C5.53255 9.07161 5.13542 8.85352 4.79688 8.59961C4.46484 8.3457 4.20443 8.04622 4.01562 7.70117C3.82682 7.34961 3.73242 6.94922 3.73242 6.5C3.73242 6.05729 3.82682 5.64062 4.01562 5.25C4.21094 4.85938 4.48763 4.51432 4.8457 4.21484C5.21029 3.90885 5.65299 3.67122 6.17383 3.50195C6.70117 3.32617 7.29362 3.23828 7.95117 3.23828C8.86914 3.23828 9.6569 3.38477 10.3145 3.67773C10.9785 3.9707 11.4863 4.37435 11.8379 4.88867C12.196 5.39648 12.375 5.97591 12.375 6.62695H9.5625C9.5625 6.35352 9.50391 6.10938 9.38672 5.89453C9.27604 5.67318 9.10026 5.50065 8.85938 5.37695C8.625 5.24674 8.31901 5.18164 7.94141 5.18164C7.62891 5.18164 7.35872 5.23698 7.13086 5.34766C6.90299 5.45182 6.72721 5.59505 6.60352 5.77734C6.48633 5.95312 6.42773 6.14844 6.42773 6.36328C6.42773 6.52604 6.46029 6.67253 6.52539 6.80273C6.59701 6.92643 6.71094 7.04036 6.86719 7.14453C7.02344 7.2487 7.22526 7.34635 7.47266 7.4375C7.72656 7.52214 8.03906 7.60026 8.41016 7.67188C9.17188 7.82812 9.85221 8.0332 10.4512 8.28711C11.0501 8.53451 11.5254 8.87305 11.877 9.30273C12.2285 9.72591 12.4043 10.2826 12.4043 10.9727C12.4043 11.4414 12.3001 11.8711 12.0918 12.2617C11.8835 12.6523 11.584 12.9941 11.1934 13.2871C10.8027 13.5736 10.334 13.7982 9.78711 13.9609C9.24674 14.1172 8.63802 14.1953 7.96094 14.1953C6.97786 14.1953 6.14453 14.0195 5.46094 13.668C4.78385 13.3164 4.26953 12.8704 3.91797 12.3301C3.57292 11.7832 3.40039 11.2233 3.40039 10.6504H6.06641C6.07943 11.0345 6.17708 11.3438 6.35938 11.5781C6.54818 11.8125 6.78581 11.9818 7.07227 12.0859C7.36523 12.1901 7.68099 12.2422 8.01953 12.2422C8.38411 12.2422 8.68685 12.1934 8.92773 12.0957C9.16862 11.9915 9.35091 11.8548 9.47461 11.6855C9.60482 11.5098 9.66992 11.3079 9.66992 11.0801Z" fill="#161618"/>
</svg>
